<svg width="35" height="35" viewBox="0 0 35 35" fill="none" xmlns="http://www.w3.org/2000/svg">
<circle cx="17.5" cy="17.5" r="16.5" fill="#A11010"/>
<path d="M17.5 32.8125C13.4389 32.8125 9.54408 31.1992 6.67243 28.3276C3.80078 25.4559 2.1875 21.5611 2.1875 17.5C2.1875 13.4389 3.80078 9.54408 6.67243 6.67243C9.54408 3.80078 13.4389 2.1875 17.5 2.1875C21.5611 2.1875 25.4559 3.80078 28.3276 6.67243C31.1992 9.54408 32.8125 13.4389 32.8125 17.5C32.8125 21.5611 31.1992 25.4559 28.3276 28.3276C25.4559 31.1992 21.5611 32.8125 17.5 32.8125ZM17.5 35C22.1413 35 26.5925 33.1563 29.8744 29.8744C33.1563 26.5925 35 22.1413 35 17.5C35 12.8587 33.1563 8.40752 29.8744 5.12563C26.5925 1.84374 22.1413 0 17.5 0C12.8587 0 8.40752 1.84374 5.12563 5.12563C1.84374 8.40752 0 12.8587 0 17.5C0 22.1413 1.84374 26.5925 5.12563 29.8744C8.40752 33.1563 12.8587 35 17.5 35Z" fill="#EFEFEF"/>
<path d="M14 26.1268C14 25.7495 14.0776 25.3759 14.2284 25.0273C14.3791 24.6787 14.6001 24.3619 14.8787 24.0951C15.1573 23.8283 15.488 23.6167 15.852 23.4723C16.2159 23.3279 16.606 23.2536 17 23.2536C17.394 23.2536 17.7841 23.3279 18.1481 23.4723C18.512 23.6167 18.8427 23.8283 19.1213 24.0951C19.3999 24.3619 19.6209 24.6787 19.7716 25.0273C19.9224 25.3759 20 25.7495 20 26.1268C20 26.8888 19.6839 27.6196 19.1213 28.1585C18.5587 28.6973 17.7956 29 17 29C16.2044 29 15.4413 28.6973 14.8787 28.1585C14.3161 27.6196 14 26.8888 14 26.1268ZM14.294 8.8732C14.254 8.51072 14.2941 8.14425 14.4116 7.79756C14.5291 7.45086 14.7214 7.1317 14.976 6.86078C15.2306 6.58985 15.5418 6.37321 15.8894 6.22492C16.2371 6.07663 16.6134 6 16.994 6C17.3746 6 17.7509 6.07663 18.0986 6.22492C18.4462 6.37321 18.7574 6.58985 19.012 6.86078C19.2666 7.1317 19.4589 7.45086 19.5764 7.79756C19.6939 8.14425 19.7339 8.51072 19.694 8.8732L18.644 18.9495C18.6087 19.3454 18.4196 19.7141 18.1141 19.9828C17.8085 20.2516 17.4088 20.4007 16.994 20.4007C16.5792 20.4007 16.1795 20.2516 15.8739 19.9828C15.5684 19.7141 15.3793 19.3454 15.344 18.9495L14.294 8.8732Z" fill="#EFEFEF"/>
</svg>
