<svg width="19" height="19" viewBox="0 0 19 19" fill="none" xmlns="http://www.w3.org/2000/svg">
<path d="M14.8184 4.77733C14.7067 4.66101 14.5729 4.56765 14.4242 4.50354C14.2753 4.43933 14.115 4.40601 13.9526 4.40601C13.7901 4.40601 13.6298 4.43933 13.4809 4.50354C13.332 4.56772 13.1981 4.66123 13.0863 4.77773C13.0863 4.77775 13.0863 4.77777 13.0862 4.77778L4.51712 13.6826L4.8774 14.0293L4.51712 13.6826C4.40525 13.7989 4.31749 13.9358 4.25794 14.0852L4.72114 14.2699L4.25793 14.0852C4.19839 14.2346 4.16797 14.3941 4.16797 14.5547C4.16797 14.7153 4.19839 14.8748 4.25794 15.0242C4.31749 15.1736 4.40525 15.3106 4.51712 15.4268L4.87593 15.0815L4.51712 15.4268C4.74337 15.6619 5.05442 15.7978 5.383 15.7978C5.54528 15.7978 5.7055 15.7645 5.85432 15.7005L5.65663 15.2412L5.85432 15.7005C6.00309 15.6364 6.13698 15.5431 6.24888 15.4268L5.88861 15.0801L6.24888 15.4268L14.818 6.522M14.8184 4.77733C14.8186 4.77748 14.8187 4.77763 14.8189 4.77778L14.4582 5.12403L14.818 4.77687C14.8182 4.77703 14.8183 4.77718 14.8184 4.77733ZM14.8184 4.77733C14.9303 4.89344 15.0182 5.03029 15.0778 5.17959C15.1375 5.32906 15.168 5.48867 15.168 5.64944C15.168 5.81021 15.1375 5.96981 15.0778 6.11928C15.0182 6.26858 14.9303 6.40543 14.8184 6.52155M14.8184 6.52155L14.4582 6.17486L14.818 6.522M14.8184 6.52155C14.8183 6.5217 14.8182 6.52185 14.818 6.522M14.8184 6.52155L14.818 6.522" fill="#EFEFEF" stroke="#EFEFEF"/>
<path d="M9.41797 15.9685C7.75208 15.9685 6.15442 15.3067 4.97645 14.1288C3.79849 12.9508 3.13672 11.3531 3.13672 9.68726C3.13672 8.02137 3.79849 6.4237 4.97645 5.24574C6.15442 4.06778 7.75208 3.40601 9.41797 3.40601C11.0839 3.40601 12.6815 4.06778 13.8595 5.24574C15.0374 6.4237 15.6992 8.02137 15.6992 9.68726C15.6992 11.3531 15.0374 12.9508 13.8595 14.1288C12.6815 15.3067 11.0839 15.9685 9.41797 15.9685ZM9.41797 17.9373C11.606 17.9373 13.7044 17.0681 15.2516 15.5209C16.7988 13.9737 17.668 11.8753 17.668 9.68726C17.668 7.49922 16.7988 5.4008 15.2516 3.85362C13.7044 2.30645 11.606 1.43726 9.41797 1.43726C7.22993 1.43726 5.13151 2.30645 3.58434 3.85362C2.03716 5.4008 1.16797 7.49922 1.16797 9.68726C1.16797 11.8753 2.03716 13.9737 3.58434 15.5209C5.13151 17.0681 7.22993 17.9373 9.41797 17.9373Z" fill="#EFEFEF" stroke="#EFEFEF"/>
</svg>
