<svg width="6" height="6" viewBox="0 0 6 6" fill="none" xmlns="http://www.w3.org/2000/svg">
<path d="M0.765876 0.804619C0.796833 0.775001 0.833609 0.751502 0.874097 0.735468C0.914585 0.719435 0.95799 0.711182 1.00183 0.711182C1.04566 0.711182 1.08907 0.719435 1.12955 0.735468C1.17004 0.751502 1.20682 0.775001 1.23777 0.804619L3.00139 2.48835L4.76501 0.804619C4.79599 0.775049 4.83278 0.751592 4.87326 0.735589C4.91374 0.719585 4.95713 0.711348 5.00095 0.711348C5.04477 0.711348 5.08816 0.719585 5.12865 0.735589C5.16913 0.751592 5.20592 0.775049 5.2369 0.804619C5.26789 0.83419 5.29247 0.869295 5.30924 0.907931C5.326 0.946567 5.33464 0.987977 5.33464 1.0298C5.33464 1.07161 5.326 1.11302 5.30924 1.15166C5.29247 1.1903 5.26789 1.2254 5.2369 1.25497L3.47262 2.93807L5.2369 4.62117C5.26789 4.65074 5.29247 4.68584 5.30924 4.72448C5.326 4.76311 5.33464 4.80452 5.33464 4.84634C5.33464 4.88816 5.326 4.92957 5.30924 4.96821C5.29247 5.00684 5.26789 5.04195 5.2369 5.07152C5.20592 5.10109 5.16913 5.12455 5.12865 5.14055C5.08816 5.15655 5.04477 5.16479 5.00095 5.16479C4.95713 5.16479 4.91374 5.15655 4.87326 5.14055C4.83278 5.12455 4.79599 5.10109 4.76501 5.07152L3.00139 3.38779L1.23777 5.07152C1.20679 5.10109 1.17 5.12455 1.12952 5.14055C1.08904 5.15655 1.04564 5.16479 1.00183 5.16479C0.958005 5.16479 0.914615 5.15655 0.87413 5.14055C0.833646 5.12455 0.796862 5.10109 0.765876 5.07152C0.734891 5.04195 0.710312 5.00684 0.693543 4.96821C0.676774 4.92957 0.668143 4.88816 0.668143 4.84634C0.668143 4.80452 0.676774 4.76311 0.693543 4.72448C0.710312 4.68584 0.734891 4.65074 0.765876 4.62117L2.53016 2.93807L0.765876 1.25497C0.734841 1.22543 0.710218 1.19033 0.693417 1.15169C0.676616 1.11305 0.667969 1.07163 0.667969 1.0298C0.667969 0.987962 0.676616 0.946539 0.693417 0.907899C0.710218 0.86926 0.734841 0.834163 0.765876 0.804619Z" fill="#EFEFEF"/>
</svg>
