<svg width="12" height="7" viewBox="0 0 12 7" fill="none" xmlns="http://www.w3.org/2000/svg">
<path d="M0.0344992 1.20672C0.00616085 1.12209 -0.00489614 1.03263 0.00198383 0.943644C0.00886379 0.854661 0.0335407 0.767965 0.0745513 0.688697C0.115562 0.609428 0.172071 0.539201 0.240729 0.48218C0.309387 0.425158 0.388795 0.382503 0.474245 0.356742C0.559695 0.330982 0.649448 0.322642 0.738182 0.332216C0.826916 0.34179 0.912824 0.369083 0.990813 0.412478C1.0688 0.455872 1.13728 0.514485 1.1922 0.584839C1.24711 0.655194 1.28734 0.735858 1.3105 0.82205C2.70117 5.47938 9.2985 5.48005 10.6905 0.824717C10.7155 0.740758 10.7567 0.662536 10.8119 0.594517C10.8671 0.526498 10.9351 0.470013 11.0121 0.428289C11.0891 0.386565 11.1736 0.360417 11.2607 0.35134C11.3478 0.342262 11.4359 0.350432 11.5198 0.375383C11.6038 0.400334 11.682 0.441578 11.75 0.49676C11.8181 0.551941 11.8745 0.619979 11.9163 0.69699C11.958 0.774001 11.9841 0.858475 11.9932 0.945591C12.0023 1.03271 11.9941 1.12076 11.9692 1.20472C11.7268 2.03891 11.3154 2.81431 10.7605 3.48272L11.6105 4.33338C11.7319 4.45912 11.7991 4.62752 11.7976 4.80232C11.7961 4.97712 11.726 5.14432 11.6024 5.26793C11.4788 5.39153 11.3116 5.46165 11.1368 5.46317C10.962 5.46469 10.7936 5.39749 10.6678 5.27605L9.79383 4.40205C9.32222 4.75785 8.80116 5.04286 8.24717 5.24805L8.48517 6.13805C8.51056 6.22342 8.51858 6.31301 8.50877 6.40153C8.49896 6.49005 8.47152 6.57571 8.42805 6.65344C8.38459 6.73118 8.32599 6.79942 8.25571 6.85413C8.18544 6.90885 8.10491 6.94892 8.01889 6.972C7.93287 6.99508 7.8431 7.00068 7.75487 6.98849C7.66665 6.97629 7.58176 6.94654 7.50523 6.90099C7.42869 6.85545 7.36206 6.79503 7.30926 6.7233C7.25647 6.65157 7.21858 6.57 7.19783 6.48338L6.95517 5.57872C6.32383 5.67205 5.6785 5.67205 5.04717 5.57872L4.8045 6.48338C4.78375 6.57 4.74586 6.65157 4.69307 6.7233C4.64027 6.79503 4.57364 6.85545 4.4971 6.90099C4.42057 6.94654 4.33568 6.97629 4.24746 6.98849C4.15923 7.00068 4.06946 6.99508 3.98344 6.972C3.89742 6.94892 3.81689 6.90885 3.74662 6.85413C3.67634 6.79942 3.61774 6.73118 3.57428 6.65344C3.53082 6.57571 3.50337 6.49005 3.49356 6.40153C3.48375 6.31301 3.49178 6.22342 3.51717 6.13805L3.75517 5.24805C3.20113 5.04265 2.68007 4.75742 2.2085 4.40138L1.33517 5.27605C1.21016 5.40123 1.04055 5.47163 0.863637 5.47175C0.686728 5.47188 0.517015 5.40172 0.391833 5.27672C0.26665 5.15171 0.196254 4.9821 0.196129 4.80519C0.196004 4.62828 0.266161 4.45857 0.391166 4.33338L1.24117 3.48338C0.718499 2.85938 0.301166 2.10072 0.033166 1.20738L0.0344992 1.20672Z" fill="#999999"/>
</svg>
