<svg width="16" height="16" viewBox="0 0 16 16" fill="none" xmlns="http://www.w3.org/2000/svg">
<g clip-path="url(#clip0_78_5023)">
<path d="M2.0345 6.20672C2.00616 6.12209 1.9951 6.03263 2.00198 5.94364C2.00886 5.85466 2.03354 5.76797 2.07455 5.6887C2.11556 5.60943 2.17207 5.5392 2.24073 5.48218C2.30939 5.42516 2.38879 5.3825 2.47424 5.35674C2.5597 5.33098 2.64945 5.32264 2.73818 5.33222C2.82692 5.34179 2.91282 5.36908 2.99081 5.41248C3.0688 5.45587 3.13728 5.51448 3.1922 5.58484C3.24711 5.65519 3.28734 5.73586 3.3105 5.82205C4.70117 10.4794 11.2985 10.4801 12.6905 5.82472C12.7155 5.74076 12.7567 5.66254 12.8119 5.59452C12.8671 5.5265 12.9351 5.47001 13.0121 5.42829C13.0891 5.38656 13.1736 5.36042 13.2607 5.35134C13.3478 5.34226 13.4359 5.35043 13.5198 5.37538C13.6038 5.40033 13.682 5.44158 13.75 5.49676C13.8181 5.55194 13.8745 5.61998 13.9163 5.69699C13.958 5.774 13.9841 5.85848 13.9932 5.94559C14.0023 6.03271 13.9941 6.12076 13.9692 6.20472C13.7268 7.03891 13.3154 7.81431 12.7605 8.48272L13.6105 9.33338C13.7319 9.45912 13.7991 9.62752 13.7976 9.80232C13.7961 9.97712 13.726 10.1443 13.6024 10.2679C13.4788 10.3915 13.3116 10.4616 13.1368 10.4632C12.962 10.4647 12.7936 10.3975 12.6678 10.276L11.7938 9.40205C11.3222 9.75785 10.8012 10.0429 10.2472 10.248L10.4852 11.1381C10.5106 11.2234 10.5186 11.313 10.5088 11.4015C10.499 11.49 10.4715 11.5757 10.4281 11.6534C10.3846 11.7312 10.326 11.7994 10.2557 11.8541C10.1854 11.9088 10.1049 11.9489 10.0189 11.972C9.93287 11.9951 9.8431 12.0007 9.75487 11.9885C9.66665 11.9763 9.58176 11.9465 9.50523 11.901C9.42869 11.8554 9.36206 11.795 9.30926 11.7233C9.25647 11.6516 9.21858 11.57 9.19783 11.4834L8.95517 10.5787C8.32383 10.672 7.6785 10.672 7.04717 10.5787L6.8045 11.4834C6.78375 11.57 6.74586 11.6516 6.69307 11.7233C6.64027 11.795 6.57364 11.8554 6.4971 11.901C6.42057 11.9465 6.33568 11.9763 6.24746 11.9885C6.15923 12.0007 6.06946 11.9951 5.98344 11.972C5.89742 11.9489 5.81689 11.9088 5.74662 11.8541C5.67634 11.7994 5.61774 11.7312 5.57428 11.6534C5.53082 11.5757 5.50337 11.49 5.49356 11.4015C5.48375 11.313 5.49178 11.2234 5.51717 11.1381L5.75517 10.248C5.20113 10.0427 4.68007 9.75742 4.2085 9.40138L3.33517 10.276C3.21016 10.4012 3.04055 10.4716 2.86364 10.4718C2.68673 10.4719 2.51701 10.4017 2.39183 10.2767C2.26665 10.1517 2.19625 9.9821 2.19613 9.80519C2.196 9.62828 2.26616 9.45857 2.39117 9.33338L3.24117 8.48338C2.7185 7.85938 2.30117 7.10072 2.03317 6.20738L2.0345 6.20672Z" fill="#999999"/>
</g>
<defs>
<clipPath id="clip0_78_5023">
<rect width="16" height="16" fill="white"/>
</clipPath>
</defs>
</svg>
