<svg width="11" height="8" viewBox="0 0 11 8" fill="none" xmlns="http://www.w3.org/2000/svg">
<path d="M7.26788 3.82486C7.26788 4.71065 6.55086 5.42873 5.66637 5.42873C4.78189 5.42873 4.06488 4.71065 4.06488 3.82486C4.06488 2.93905 4.78189 2.22098 5.66637 2.22098C6.55086 2.22097 7.26788 2.93906 7.26788 3.82486ZM5.66927 0.485352C4.75349 0.489598 3.80426 0.722645 2.90568 1.16883C2.2385 1.51376 1.58829 2.0004 1.02388 2.60107C0.746675 2.90769 0.393102 3.35167 0.335938 3.82538C0.342693 4.23571 0.76376 4.74219 1.02388 5.04969C1.55316 5.62677 2.18643 6.09983 2.90568 6.48229C3.74364 6.9074 4.67116 7.15215 5.66927 7.16576C6.58592 7.16145 7.53494 6.92572 8.43252 6.48229C9.09971 6.13736 9.75024 5.65036 10.3147 5.04969C10.5919 4.74307 10.9454 4.29908 11.0026 3.82538C10.9958 3.41504 10.5748 2.90855 10.3147 2.60105C9.78539 2.02398 9.15178 1.55128 8.43252 1.16881C7.595 0.744025 6.6652 0.500952 5.66927 0.485352ZM5.6686 1.31462C7.05632 1.31462 8.18126 2.43888 8.18126 3.82574C8.18126 5.21259 7.05632 6.33684 5.6686 6.33684C4.28087 6.33684 3.15593 5.21258 3.15593 3.82574C3.15593 2.43888 4.28087 1.31462 5.6686 1.31462Z" fill="#999999"/>
</svg>
