<svg width="11" height="13" viewBox="0 0 11 13" fill="none" xmlns="http://www.w3.org/2000/svg">
<path d="M5.66927 6.08316C6.37651 6.08316 7.05479 5.77035 7.55489 5.21354C8.05499 4.65673 8.33594 3.90154 8.33594 3.11409C8.33594 2.32664 8.05499 1.57145 7.55489 1.01464C7.05479 0.457832 6.37651 0.14502 5.66927 0.14502C4.96203 0.14502 4.28375 0.457832 3.78365 1.01464C3.28356 1.57145 3.0026 2.32664 3.0026 3.11409C3.0026 3.90154 3.28356 4.65673 3.78365 5.21354C4.28375 5.77035 4.96203 6.08316 5.66927 6.08316ZM7.44705 3.11409C7.44705 3.63906 7.25975 4.14252 6.92635 4.51373C6.59295 4.88493 6.14077 5.09347 5.66927 5.09347C5.19777 5.09347 4.74559 4.88493 4.41219 4.51373C4.07879 4.14252 3.89149 3.63906 3.89149 3.11409C3.89149 2.58913 4.07879 2.08566 4.41219 1.71446C4.74559 1.34325 5.19777 1.13471 5.66927 1.13471C6.14077 1.13471 6.59295 1.34325 6.92635 1.71446C7.25975 2.08566 7.44705 2.58913 7.44705 3.11409ZM11.0026 11.0316C11.0026 12.0213 10.1137 12.0213 10.1137 12.0213H1.22483C1.22483 12.0213 0.335938 12.0213 0.335938 11.0316C0.335938 10.0419 1.22483 7.07285 5.66927 7.07285C10.1137 7.07285 11.0026 10.0419 11.0026 11.0316ZM10.1137 11.0277C10.1128 10.7842 9.97683 10.0518 9.37416 9.38081C8.7946 8.73553 7.70394 8.06255 5.66927 8.06255C3.63372 8.06255 2.54394 8.73553 1.96438 9.38081C1.36172 10.0518 1.2266 10.7842 1.22483 11.0277H10.1137Z" fill="#999999"/>
</svg>
